<mxfile host="Electron" modified="2023-10-04T03:52:18.666Z" agent="Mozilla/5.0 (Windows NT 10.0; Win64; x64) AppleWebKit/537.36 (KHTML, like Gecko) draw.io/21.7.5 Chrome/114.0.5735.289 Electron/25.8.1 Safari/537.36" etag="gYtovRo7EYiY_fxjbjtJ" version="21.7.5" type="device">
  <diagram id="C5RBs43oDa-KdzZeNtuy" name="Page-1">
    <mxGraphModel dx="1203" dy="1308" grid="1" gridSize="10" guides="1" tooltips="1" connect="1" arrows="1" fold="1" page="1" pageScale="1" pageWidth="827" pageHeight="1169" math="0" shadow="0">
      <root>
        <mxCell id="WIyWlLk6GJQsqaUBKTNV-0" />
        <mxCell id="WIyWlLk6GJQsqaUBKTNV-1" parent="WIyWlLk6GJQsqaUBKTNV-0" />
        <mxCell id="iFLu1UaNGIwBAGXhtmNX-5" value="" style="edgeStyle=orthogonalEdgeStyle;rounded=0;orthogonalLoop=1;jettySize=auto;html=1;" edge="1" parent="WIyWlLk6GJQsqaUBKTNV-1" source="iFLu1UaNGIwBAGXhtmNX-0" target="iFLu1UaNGIwBAGXhtmNX-2">
          <mxGeometry relative="1" as="geometry" />
        </mxCell>
        <mxCell id="iFLu1UaNGIwBAGXhtmNX-0" value="START" style="ellipse;whiteSpace=wrap;html=1;" vertex="1" parent="WIyWlLk6GJQsqaUBKTNV-1">
          <mxGeometry x="250" y="60" width="120" height="80" as="geometry" />
        </mxCell>
        <mxCell id="iFLu1UaNGIwBAGXhtmNX-6" value="" style="edgeStyle=orthogonalEdgeStyle;rounded=0;orthogonalLoop=1;jettySize=auto;html=1;" edge="1" parent="WIyWlLk6GJQsqaUBKTNV-1" source="iFLu1UaNGIwBAGXhtmNX-2" target="iFLu1UaNGIwBAGXhtmNX-3">
          <mxGeometry relative="1" as="geometry" />
        </mxCell>
        <mxCell id="iFLu1UaNGIwBAGXhtmNX-2" value="String jenis_buku,&lt;br&gt;double diskon,&lt;br&gt;int jumlah_buku, harga_buku" style="shape=hexagon;perimeter=hexagonPerimeter2;whiteSpace=wrap;html=1;fixedSize=1;" vertex="1" parent="WIyWlLk6GJQsqaUBKTNV-1">
          <mxGeometry x="250" y="190" width="120" height="80" as="geometry" />
        </mxCell>
        <mxCell id="iFLu1UaNGIwBAGXhtmNX-7" value="" style="edgeStyle=orthogonalEdgeStyle;rounded=0;orthogonalLoop=1;jettySize=auto;html=1;" edge="1" parent="WIyWlLk6GJQsqaUBKTNV-1" source="iFLu1UaNGIwBAGXhtmNX-3" target="iFLu1UaNGIwBAGXhtmNX-4">
          <mxGeometry relative="1" as="geometry" />
        </mxCell>
        <mxCell id="iFLu1UaNGIwBAGXhtmNX-3" value="jenis_buku,&lt;br&gt;jumlah_buku" style="shape=parallelogram;perimeter=parallelogramPerimeter;whiteSpace=wrap;html=1;fixedSize=1;" vertex="1" parent="WIyWlLk6GJQsqaUBKTNV-1">
          <mxGeometry x="250" y="320" width="120" height="60" as="geometry" />
        </mxCell>
        <mxCell id="iFLu1UaNGIwBAGXhtmNX-10" value="" style="edgeStyle=orthogonalEdgeStyle;rounded=0;orthogonalLoop=1;jettySize=auto;html=1;" edge="1" parent="WIyWlLk6GJQsqaUBKTNV-1" source="iFLu1UaNGIwBAGXhtmNX-4" target="iFLu1UaNGIwBAGXhtmNX-9">
          <mxGeometry relative="1" as="geometry" />
        </mxCell>
        <mxCell id="iFLu1UaNGIwBAGXhtmNX-21" value="" style="edgeStyle=orthogonalEdgeStyle;rounded=0;orthogonalLoop=1;jettySize=auto;html=1;" edge="1" parent="WIyWlLk6GJQsqaUBKTNV-1" source="iFLu1UaNGIwBAGXhtmNX-4" target="iFLu1UaNGIwBAGXhtmNX-20">
          <mxGeometry relative="1" as="geometry" />
        </mxCell>
        <mxCell id="iFLu1UaNGIwBAGXhtmNX-31" value="false" style="edgeLabel;html=1;align=center;verticalAlign=middle;resizable=0;points=[];" vertex="1" connectable="0" parent="iFLu1UaNGIwBAGXhtmNX-21">
          <mxGeometry x="0.2125" y="1" relative="1" as="geometry">
            <mxPoint as="offset" />
          </mxGeometry>
        </mxCell>
        <mxCell id="iFLu1UaNGIwBAGXhtmNX-4" value="jenis_buku = kamus" style="rhombus;whiteSpace=wrap;html=1;" vertex="1" parent="WIyWlLk6GJQsqaUBKTNV-1">
          <mxGeometry x="260" y="430" width="100" height="100" as="geometry" />
        </mxCell>
        <mxCell id="iFLu1UaNGIwBAGXhtmNX-12" value="" style="edgeStyle=orthogonalEdgeStyle;rounded=0;orthogonalLoop=1;jettySize=auto;html=1;" edge="1" parent="WIyWlLk6GJQsqaUBKTNV-1" source="iFLu1UaNGIwBAGXhtmNX-9" target="iFLu1UaNGIwBAGXhtmNX-11">
          <mxGeometry relative="1" as="geometry" />
        </mxCell>
        <mxCell id="iFLu1UaNGIwBAGXhtmNX-14" value="" style="edgeStyle=orthogonalEdgeStyle;rounded=0;orthogonalLoop=1;jettySize=auto;html=1;" edge="1" parent="WIyWlLk6GJQsqaUBKTNV-1" source="iFLu1UaNGIwBAGXhtmNX-9" target="iFLu1UaNGIwBAGXhtmNX-13">
          <mxGeometry relative="1" as="geometry" />
        </mxCell>
        <mxCell id="iFLu1UaNGIwBAGXhtmNX-9" value="jumlah_buku &amp;gt; 2" style="rhombus;whiteSpace=wrap;html=1;" vertex="1" parent="WIyWlLk6GJQsqaUBKTNV-1">
          <mxGeometry x="450" y="430" width="110" height="100" as="geometry" />
        </mxCell>
        <mxCell id="iFLu1UaNGIwBAGXhtmNX-11" value="diskon = 0.12" style="shape=parallelogram;perimeter=parallelogramPerimeter;whiteSpace=wrap;html=1;fixedSize=1;" vertex="1" parent="WIyWlLk6GJQsqaUBKTNV-1">
          <mxGeometry x="620" y="450" width="120" height="60" as="geometry" />
        </mxCell>
        <mxCell id="iFLu1UaNGIwBAGXhtmNX-13" value="diskon = 0.1" style="shape=parallelogram;perimeter=parallelogramPerimeter;whiteSpace=wrap;html=1;fixedSize=1;" vertex="1" parent="WIyWlLk6GJQsqaUBKTNV-1">
          <mxGeometry x="445" y="585" width="120" height="60" as="geometry" />
        </mxCell>
        <mxCell id="iFLu1UaNGIwBAGXhtmNX-15" value="true" style="text;html=1;strokeColor=none;fillColor=none;align=center;verticalAlign=middle;whiteSpace=wrap;rounded=0;" vertex="1" parent="WIyWlLk6GJQsqaUBKTNV-1">
          <mxGeometry x="360" y="450" width="60" height="30" as="geometry" />
        </mxCell>
        <mxCell id="iFLu1UaNGIwBAGXhtmNX-18" value="true" style="text;html=1;strokeColor=none;fillColor=none;align=center;verticalAlign=middle;whiteSpace=wrap;rounded=0;" vertex="1" parent="WIyWlLk6GJQsqaUBKTNV-1">
          <mxGeometry x="560" y="450" width="60" height="30" as="geometry" />
        </mxCell>
        <mxCell id="iFLu1UaNGIwBAGXhtmNX-19" value="false" style="text;html=1;strokeColor=none;fillColor=none;align=center;verticalAlign=middle;whiteSpace=wrap;rounded=0;" vertex="1" parent="WIyWlLk6GJQsqaUBKTNV-1">
          <mxGeometry x="500" y="540" width="60" height="30" as="geometry" />
        </mxCell>
        <mxCell id="iFLu1UaNGIwBAGXhtmNX-24" value="" style="edgeStyle=orthogonalEdgeStyle;rounded=0;orthogonalLoop=1;jettySize=auto;html=1;" edge="1" parent="WIyWlLk6GJQsqaUBKTNV-1" source="iFLu1UaNGIwBAGXhtmNX-20" target="iFLu1UaNGIwBAGXhtmNX-22">
          <mxGeometry relative="1" as="geometry" />
        </mxCell>
        <mxCell id="iFLu1UaNGIwBAGXhtmNX-29" value="" style="edgeStyle=orthogonalEdgeStyle;rounded=0;orthogonalLoop=1;jettySize=auto;html=1;" edge="1" parent="WIyWlLk6GJQsqaUBKTNV-1" source="iFLu1UaNGIwBAGXhtmNX-20" target="iFLu1UaNGIwBAGXhtmNX-28">
          <mxGeometry relative="1" as="geometry" />
        </mxCell>
        <mxCell id="iFLu1UaNGIwBAGXhtmNX-32" value="false" style="edgeLabel;html=1;align=center;verticalAlign=middle;resizable=0;points=[];" vertex="1" connectable="0" parent="iFLu1UaNGIwBAGXhtmNX-29">
          <mxGeometry x="-0.0452" y="-1" relative="1" as="geometry">
            <mxPoint as="offset" />
          </mxGeometry>
        </mxCell>
        <mxCell id="iFLu1UaNGIwBAGXhtmNX-20" value="jenis_buku = &lt;br&gt;novel" style="rhombus;whiteSpace=wrap;html=1;" vertex="1" parent="WIyWlLk6GJQsqaUBKTNV-1">
          <mxGeometry x="255" y="690" width="110" height="95" as="geometry" />
        </mxCell>
        <mxCell id="iFLu1UaNGIwBAGXhtmNX-25" value="" style="edgeStyle=orthogonalEdgeStyle;rounded=0;orthogonalLoop=1;jettySize=auto;html=1;" edge="1" parent="WIyWlLk6GJQsqaUBKTNV-1" source="iFLu1UaNGIwBAGXhtmNX-22" target="iFLu1UaNGIwBAGXhtmNX-23">
          <mxGeometry relative="1" as="geometry" />
        </mxCell>
        <mxCell id="iFLu1UaNGIwBAGXhtmNX-27" value="" style="edgeStyle=orthogonalEdgeStyle;rounded=0;orthogonalLoop=1;jettySize=auto;html=1;" edge="1" parent="WIyWlLk6GJQsqaUBKTNV-1" source="iFLu1UaNGIwBAGXhtmNX-22" target="iFLu1UaNGIwBAGXhtmNX-26">
          <mxGeometry relative="1" as="geometry" />
        </mxCell>
        <mxCell id="iFLu1UaNGIwBAGXhtmNX-22" value="jumlah_buku &amp;gt; 3" style="rhombus;whiteSpace=wrap;html=1;" vertex="1" parent="WIyWlLk6GJQsqaUBKTNV-1">
          <mxGeometry x="470" y="687.5" width="120" height="100" as="geometry" />
        </mxCell>
        <mxCell id="iFLu1UaNGIwBAGXhtmNX-23" value="diskon = 0. 09&amp;nbsp;" style="shape=parallelogram;perimeter=parallelogramPerimeter;whiteSpace=wrap;html=1;fixedSize=1;" vertex="1" parent="WIyWlLk6GJQsqaUBKTNV-1">
          <mxGeometry x="660" y="707.5" width="120" height="60" as="geometry" />
        </mxCell>
        <mxCell id="iFLu1UaNGIwBAGXhtmNX-26" value="diskon = 0.08" style="shape=parallelogram;perimeter=parallelogramPerimeter;whiteSpace=wrap;html=1;fixedSize=1;" vertex="1" parent="WIyWlLk6GJQsqaUBKTNV-1">
          <mxGeometry x="470" y="840" width="120" height="60" as="geometry" />
        </mxCell>
        <mxCell id="iFLu1UaNGIwBAGXhtmNX-33" value="" style="edgeStyle=orthogonalEdgeStyle;rounded=0;orthogonalLoop=1;jettySize=auto;html=1;" edge="1" parent="WIyWlLk6GJQsqaUBKTNV-1" source="iFLu1UaNGIwBAGXhtmNX-28" target="iFLu1UaNGIwBAGXhtmNX-30">
          <mxGeometry relative="1" as="geometry" />
        </mxCell>
        <mxCell id="iFLu1UaNGIwBAGXhtmNX-36" value="" style="edgeStyle=orthogonalEdgeStyle;rounded=0;orthogonalLoop=1;jettySize=auto;html=1;" edge="1" parent="WIyWlLk6GJQsqaUBKTNV-1" source="iFLu1UaNGIwBAGXhtmNX-28" target="iFLu1UaNGIwBAGXhtmNX-35">
          <mxGeometry relative="1" as="geometry" />
        </mxCell>
        <mxCell id="iFLu1UaNGIwBAGXhtmNX-28" value="jumlah_buku &amp;gt; 3" style="rhombus;whiteSpace=wrap;html=1;" vertex="1" parent="WIyWlLk6GJQsqaUBKTNV-1">
          <mxGeometry x="257.5" y="940" width="105" height="100" as="geometry" />
        </mxCell>
        <mxCell id="iFLu1UaNGIwBAGXhtmNX-30" value="diskon = 0.5" style="shape=parallelogram;perimeter=parallelogramPerimeter;whiteSpace=wrap;html=1;fixedSize=1;" vertex="1" parent="WIyWlLk6GJQsqaUBKTNV-1">
          <mxGeometry x="450" y="955" width="120" height="70" as="geometry" />
        </mxCell>
        <mxCell id="iFLu1UaNGIwBAGXhtmNX-37" value="" style="edgeStyle=orthogonalEdgeStyle;rounded=0;orthogonalLoop=1;jettySize=auto;html=1;" edge="1" parent="WIyWlLk6GJQsqaUBKTNV-1" source="iFLu1UaNGIwBAGXhtmNX-35">
          <mxGeometry relative="1" as="geometry">
            <mxPoint x="310" y="1190" as="targetPoint" />
          </mxGeometry>
        </mxCell>
        <mxCell id="iFLu1UaNGIwBAGXhtmNX-35" value="diskon = 0" style="shape=parallelogram;perimeter=parallelogramPerimeter;whiteSpace=wrap;html=1;fixedSize=1;" vertex="1" parent="WIyWlLk6GJQsqaUBKTNV-1">
          <mxGeometry x="250" y="1070" width="120" height="60" as="geometry" />
        </mxCell>
        <mxCell id="iFLu1UaNGIwBAGXhtmNX-40" value="" style="edgeStyle=orthogonalEdgeStyle;rounded=0;orthogonalLoop=1;jettySize=auto;html=1;" edge="1" parent="WIyWlLk6GJQsqaUBKTNV-1" source="iFLu1UaNGIwBAGXhtmNX-38" target="iFLu1UaNGIwBAGXhtmNX-39">
          <mxGeometry relative="1" as="geometry" />
        </mxCell>
        <mxCell id="iFLu1UaNGIwBAGXhtmNX-38" value="bayar = harga_buku - (diskon*harga_buku)" style="shape=parallelogram;perimeter=parallelogramPerimeter;whiteSpace=wrap;html=1;fixedSize=1;size=-46.5;" vertex="1" parent="WIyWlLk6GJQsqaUBKTNV-1">
          <mxGeometry x="226.5" y="1190" width="167" height="110" as="geometry" />
        </mxCell>
        <mxCell id="iFLu1UaNGIwBAGXhtmNX-42" value="" style="edgeStyle=orthogonalEdgeStyle;rounded=0;orthogonalLoop=1;jettySize=auto;html=1;" edge="1" parent="WIyWlLk6GJQsqaUBKTNV-1" source="iFLu1UaNGIwBAGXhtmNX-39" target="iFLu1UaNGIwBAGXhtmNX-41">
          <mxGeometry relative="1" as="geometry" />
        </mxCell>
        <mxCell id="iFLu1UaNGIwBAGXhtmNX-39" value="bayar" style="shape=parallelogram;perimeter=parallelogramPerimeter;whiteSpace=wrap;html=1;fixedSize=1;" vertex="1" parent="WIyWlLk6GJQsqaUBKTNV-1">
          <mxGeometry x="237.5" y="1370" width="145" height="90" as="geometry" />
        </mxCell>
        <mxCell id="iFLu1UaNGIwBAGXhtmNX-41" value="End" style="ellipse;whiteSpace=wrap;html=1;" vertex="1" parent="WIyWlLk6GJQsqaUBKTNV-1">
          <mxGeometry x="250" y="1520" width="120" height="80" as="geometry" />
        </mxCell>
        <mxCell id="iFLu1UaNGIwBAGXhtmNX-43" value="" style="endArrow=classic;html=1;rounded=0;exitX=0.5;exitY=1;exitDx=0;exitDy=0;" edge="1" parent="WIyWlLk6GJQsqaUBKTNV-1" source="iFLu1UaNGIwBAGXhtmNX-30">
          <mxGeometry width="50" height="50" relative="1" as="geometry">
            <mxPoint x="510" y="1030" as="sourcePoint" />
            <mxPoint x="400" y="1240" as="targetPoint" />
            <Array as="points">
              <mxPoint x="510" y="1240" />
            </Array>
          </mxGeometry>
        </mxCell>
        <mxCell id="iFLu1UaNGIwBAGXhtmNX-46" value="" style="endArrow=none;html=1;rounded=0;exitX=1;exitY=0.5;exitDx=0;exitDy=0;" edge="1" parent="WIyWlLk6GJQsqaUBKTNV-1" source="iFLu1UaNGIwBAGXhtmNX-13">
          <mxGeometry width="50" height="50" relative="1" as="geometry">
            <mxPoint x="560" y="620" as="sourcePoint" />
            <mxPoint x="880" y="615" as="targetPoint" />
          </mxGeometry>
        </mxCell>
        <mxCell id="iFLu1UaNGIwBAGXhtmNX-47" value="" style="endArrow=none;html=1;rounded=0;exitX=1;exitY=0.5;exitDx=0;exitDy=0;" edge="1" parent="WIyWlLk6GJQsqaUBKTNV-1">
          <mxGeometry width="50" height="50" relative="1" as="geometry">
            <mxPoint x="730" y="480" as="sourcePoint" />
            <mxPoint x="880" y="480" as="targetPoint" />
          </mxGeometry>
        </mxCell>
        <mxCell id="iFLu1UaNGIwBAGXhtmNX-48" value="" style="endArrow=none;html=1;rounded=0;exitX=1;exitY=0.5;exitDx=0;exitDy=0;" edge="1" parent="WIyWlLk6GJQsqaUBKTNV-1">
          <mxGeometry width="50" height="50" relative="1" as="geometry">
            <mxPoint x="580" y="869.5" as="sourcePoint" />
            <mxPoint x="880" y="870" as="targetPoint" />
          </mxGeometry>
        </mxCell>
        <mxCell id="iFLu1UaNGIwBAGXhtmNX-49" value="" style="endArrow=none;html=1;rounded=0;exitX=1;exitY=0.5;exitDx=0;exitDy=0;" edge="1" parent="WIyWlLk6GJQsqaUBKTNV-1">
          <mxGeometry width="50" height="50" relative="1" as="geometry">
            <mxPoint x="770" y="737" as="sourcePoint" />
            <mxPoint x="880" y="738" as="targetPoint" />
          </mxGeometry>
        </mxCell>
        <mxCell id="iFLu1UaNGIwBAGXhtmNX-51" value="" style="endArrow=none;html=1;rounded=0;" edge="1" parent="WIyWlLk6GJQsqaUBKTNV-1">
          <mxGeometry width="50" height="50" relative="1" as="geometry">
            <mxPoint x="510" y="1240" as="sourcePoint" />
            <mxPoint x="880" y="480" as="targetPoint" />
            <Array as="points">
              <mxPoint x="880" y="1240" />
            </Array>
          </mxGeometry>
        </mxCell>
      </root>
    </mxGraphModel>
  </diagram>
</mxfile>
